<svg viewBox="0 0 454 454" xmlns="http://www.w3.org/2000/svg" xmlns:xlink="http://www.w3.org/1999/xlink"><defs><circle id="svg--head" cx="227" cy="227" r="227"></circle><path id="svg--face" d="M83.2,370.1 C96.6,376.5 117,380 132,380 C149,380 170.4,375.5 185.3,367.3 C234.3,340.4 264,262.5 264,184.4 C264,137.5 264.6,94.6 243.9,62 C219.7,24 171.3,0 132,0 C90.8,0 43.9,26.4 19.7,67.7 C1.1,99.5 0,140.1 0,184.4 C0,265.4 31.3,345.3 83.2,370.1 Z"></path></defs><g id="svg--container" fill="none" fill-rule="evenodd"><use id="Oval-3" fill="#52A7FF" xlink:href="#svg--head"></use><g id="Path-3-+-Oval-1-+-Path-1"><g id="svg--skin" class="face" fill="#8B572A"><path d="M128.7, 431.7 L133, 374 L326, 352 L331.3, 428.7 C304.6, 442.5 274.7, 451.2 243.1, 453.4 L213.1, 453.6 C183.0, 451.8 154.5, 444.1 128.7, 431.7 Z" id="Path-3"></path><path d="M178.6, 434.2 C191.9, 440.6 212.2, 444 227, 444 C243.9, 444 265.1, 439.5 279.9, 431.4 C328.6, 404.7 358, 327.4 358, 250.0 C358, 203.4 358.6, 160.8 338.0, 128.5 C314.0, 90.8 266.0, 67 227, 67 C186.1, 67 139.6, 93.2 115.6, 134.1 C97.1, 165.7 96, 206.0 96, 250.0 C96, 330.3 127.0, 409.6 178.6, 434.2 Z" id="Oval-1"></path></g><g id="svg--beard" transform="translate(95, 67)"><mask id="mask-4" fill="white"><use xlink:href="#svg--face"></use></mask><use id="Oval-2" xlink:href="#svg--face"></use><path d="M8, 189 C8, 189 29, 280 52, 288 L62, 258 C62, 258 82, 246 130, 246 C178, 246 198, 257 198, 257 L205, 283 C205, 283 258, 254 258, 179 C258.3, 179 265.4, 179 264.7, 179.6 C263.9, 180.1 261, 264 261, 264 L201, 389 L69, 397 L5, 328 L-10, 180 L1.8, 190 L8, 189 Z M80, 281 L107, 265 C107, 265 137, 273 149, 265 C152, 265 180, 281 180, 281 C180, 281 160, 306 128, 306 C96, 306 80, 281 80, 281 Z" fill="#2F2D30" mask="url(#mask-4)"></path></g></g></g></svg>