<?xml version="1.0" encoding="UTF-8" standalone="no"?>
<svg width="454px" height="454px" viewBox="0 0 454 454" version="1.1" xmlns="http://www.w3.org/2000/svg" xmlns:xlink="http://www.w3.org/1999/xlink" xmlns:sketch="http://www.bohemiancoding.com/sketch/ns">
    <defs>
        <circle id="path-1" cx="227" cy="227" r="227"></circle>
        <path id="path-3" d="M83.1976176,370.121076 C96.6004414,376.524889 117.04424,380 132,380 C149.025811,380 170.356221,375.496323 185.299304,367.295117 C234.339927,340.380173 264,262.494721 264,184.426667 C264,137.458099 264.582851,94.5903432 243.891043,62.0287164 C219.710597,23.9771996 171.284697,0 132,0 C90.8117765,0 43.9146777,26.3571083 19.7074362,67.6580421 C1.06878209,99.4581882 0,140.117652 0,184.426667 C0,265.386937 31.2686157,345.309615 83.1976176,370.121076 Z"></path>
    </defs>
    <g id="Page-1" stroke="none" stroke-width="1" fill="none" fill-rule="evenodd" sketch:type="MSPage">
        <g id="Rectangle-1-+-Group" sketch:type="MSLayerGroup">
            <mask id="mask-2" sketch:name="Oval 3" fill="white">
                <use xlink:href="#path-1"></use>
            </mask>
            <use id="Oval-3" fill="#52A7FF" sketch:type="MSShapeGroup" xlink:href="#path-1"></use>
            <g id="Path-3-+-Oval-1-+-Path-1" mask="url(#mask-2)">
                <g id="Path-3-+-Oval-1" class="face" fill="#8B572A" sketch:type="MSShapeGroup">
                    <path d="M128.675617,431.658439 L133,374 L326,352 L331.313474,428.665832 C304.58202,442.521034 274.745611,451.217275 243.122509,453.436299 L213.109854,453.581991 C183.006328,451.764874 154.485492,444.080933 128.675617,431.658439 Z" id="Path-3"></path>
                    <path d="M178.567333,434.199067 C191.86862,440.552324 212.157541,444 227,444 C243.896827,444 265.065644,439.531878 279.895521,431.395419 C328.564625,404.692961 358,327.422394 358,249.970667 C358,203.372903 358.578435,160.843577 338.043384,128.539016 C314.046123,90.7879059 265.987086,67 227,67 C186.123809,67 139.581991,93.1490258 115.558137,134.1239 C97.0606853,165.672992 96,206.01146 96,249.970667 C96,330.291777 127.031732,409.583486 178.567333,434.199067 Z" id="Oval-1"></path>
                </g>
                <g id="Path-1" transform="translate(95.000000, 67.000000)">
                    <mask id="mask-4" sketch:name="Oval 2" fill="white">
                        <use xlink:href="#path-3"></use>
                    </mask>
                    <use id="Oval-2" sketch:type="MSShapeGroup" xlink:href="#path-3"></use>
                    <path d="M8,189 C8,189 29,280 52,288 L62,258 C62,258 82,246 130,246 C178,246 198,257 198,257 L205,283 C205,283 258,254 258,179 C258.312122,179 265.424469,179 264.666911,179.5644 C263.909354,180.128801 261,264 261,264 L201,389 L69,397 L5,328 L-10,180 L1.77635684e-15,190 L8,189 Z M80,281 L107,265 C107,265 137,273 149,265 C152,265 180,281 180,281 C180,281 160,306 128,306 C96,306 80,281 80,281 Z" fill="#2F2D30" sketch:type="MSShapeGroup" mask="url(#mask-4)"></path>
                </g>                
            </g>
        </g>        
    </g>
</svg>